#!OML:ASF H:\Terrain\Patient Classification 1\Walking\liu\liu.ASF
:FULLY-SPECIFIED
:DEGREES
65
root 9.083530 16.306601 -27.322100 5.199890 -11.790200 0.863372
lowerback -2.461385 0.205291 -1.291545
upperback -1.143725 0.317566 1.227450
thorax 0.174308 0.172613 2.007200
lowerneck -11.230100 -1.963220 -5.803550
upperneck 8.978250 -2.278685 6.401900
head 4.997980 -0.726710 2.911020
rclavicle -0.000000 -0.000000
rhumerus -21.621250 6.529150 -45.427052
rradius 19.038000
rwrist -9.791050
rhand -14.899400 -13.066900
rfingers 3.562510
rthumb -1.561575 -28.045349
lclavicle -0.000000 -0.000000
lhumerus -19.558300 -3.100480 44.342850
lradius 10.524750
lwrist -1.629320
lhand 0.420909 -8.795050
lfingers 3.562510
lthumb 13.198200 5.296150
rfemur -2.126490 -0.374070 7.695650
rtibia 28.662100
rfoot 3.181895 -5.251800
rtoes -2.129200
lfemur -13.314600 3.841080 -12.102650
ltibia 16.130350
lfoot -5.217400 3.882775
ltoes -1.737470
66
root 9.103330 16.334600 -27.204800 5.220490 -11.602000 0.617442
lowerback -2.495150 0.158228 -1.127205
upperback -1.092590 0.247127 1.269520
thorax 0.253375 0.134273 1.954855
lowerneck -11.178500 -2.018585 -5.798300
upperneck 8.841950 -2.341980 6.362850
head 4.948175 -0.761685 2.880185
rclavicle 0.000000 -0.000000
rhumerus -21.523100 6.449400 -45.309952
rradius 19.054850
rwrist -9.842200
rhand -14.917050 -12.817700
rfingers 3.562510
rthumb -1.578630 -27.795851
lclavicle 0.000000 -0.000000
lhumerus -19.165701 -2.969280 44.158100
lradius 10.580600
lwrist -1.908700
lhand 0.336029 -8.855750
lfingers 3.562510
lthumb 13.116950 5.247600
rfemur -2.732570 -0.413985 7.956900
rtibia 29.259199
rfoot 2.515715 -5.375450
rtoes -1.142870
lfemur -12.922600 3.682160 -12.007950
ltibia 15.821500
lfoot -5.150750 3.985795
ltoes -2.184120
67
root 9.119440 16.354000 -27.100300 5.258760 -11.334100 0.578659
lowerback -2.560785 0.098719 -1.096590
upperback -1.011475 0.166269 1.287855
thorax 0.380410 0.090396 1.953240
lowerneck -11.283250 -2.036370 -5.771350
upperneck 8.830450 -2.343780 6.280600
head 4.960025 -0.766520 2.844810
rclavicle -0.000000 0.000000
rhumerus -21.393450 6.461500 -45.227901
rradius 19.111750
rwrist -9.931000
rhand -14.912750 -12.834950
rfingers 3.562510
rthumb -1.574480 -27.813200
lclavicle -0.000000 0.000000
lhumerus -18.739849 -3.488475 44.292000
lradius 10.712400
lwrist -1.524335
lhand 0.253794 -8.681900
lfingers 3.562510
lthumb 13.038250 5.433100
rfemur -3.400550 -0.494599 8.133450
rtibia 29.810200
rfoot 1.937430 -5.339850
rtoes -1.308535
lfemur -12.595250 3.545595 -12.026050
ltibia 15.526750
lfoot -5.109600 4.015950
ltoes -2.049975
68
root 9.136780 16.371700 -26.986900 5.332770 -10.993900 0.868951
lowerback -2.637250 0.022455 -1.245620
upperback -1.017000 0.073096 1.274555
thorax 0.424568 0.043567 2.019160
lowerneck -11.309950 -1.976975 -5.806400
upperneck 8.931250 -2.263115 6.315900
head 4.991010 -0.726905 2.880500
rclavicle -0.000000 -0.000000
rhumerus -21.412300 6.464100 -45.170349
rradius 19.185450
rwrist -9.967850
rhand -15.000900 -13.096550
rfingers 3.562510
rthumb -1.659620 -28.073549
lclavicle -0.000000 -0.000000
lhumerus -18.463751 -4.094630 44.495049
lradius 10.817700
lwrist -0.924635
lhand -0.000454 -8.780600
lfingers 3.562510
lthumb 12.794750 5.369850
rfemur -4.063670 -0.631140 8.108850
rtibia 30.301201
rfoot 1.377750 -5.120250
rtoes -2.278375
lfemur -12.303200 3.356355 -12.239750
ltibia 15.260350
lfoot -5.123500 4.028695
ltoes -2.107465
69
root 9.154240 16.392799 -26.870399 5.392540 -10.605600 1.068640
lowerback -2.669355 -0.057737 -1.326295
upperback -1.051065 -0.028769 1.252725
thorax 0.416306 -0.006530 2.036260
lowerneck -11.310100 -1.936100 -5.787100
upperneck 9.069650 -2.228970 6.332800
head 5.035250 -0.707880 2.894055
rclavicle -0.000000 -0.000000
rhumerus -21.483150 6.383600 -45.106098
rradius 19.311001
rwrist -9.957650
rhand -15.033350 -13.062750
rfingers 3.562510
rthumb -1.690945 -28.039200
lclavicle -0.000000 -0.000000
lhumerus -18.134300 -4.272405 44.417000
lradius 10.808900
lwrist -0.965775
lhand -0.215167 -9.157650
lfingers 3.562510
lthumb 12.589050 5.022050
rfemur -4.688595 -0.725470 8.151800
rtibia 30.721201
rfoot 0.594255 -5.011800
rtoes -3.197415
lfemur -12.029300 3.148355 -12.403850
ltibia 15.025900
lfoot -5.155450 4.066620
ltoes -2.454150
70
root 9.173080 16.405800 -26.762699 5.254440 -10.254700 0.980677
lowerback -2.591140 -0.111909 -1.228930
upperback -1.004890 -0.107134 1.250340
thorax 0.427206 -0.046982 1.973745
lowerneck -11.409250 -1.942645 -5.774450
upperneck 9.245950 -2.252895 6.353850
head 5.119800 -0.712605 2.903740
rclavicle -0.000000 -0.000000
rhumerus -21.445801 6.323750 -45.055050
rradius 19.372749
rwrist -10.062900
rhand -15.154200 -12.375900
rfingers 3.562510
rthumb -1.807650 -27.350451
lclavicle -0.000000 -0.000000
lhumerus -17.682301 -4.479230 44.304798
lradius 10.825600
lwrist -1.095330
lhand -0.338486 -9.129450
lfingers 3.562510
lthumb 12.470900 5.066750
rfemur -5.219550 -0.730635 8.377400
rtibia 31.089149
rfoot -0.293958 -5.272400
rtoes -4.240585
lfemur -11.660200 2.936840 -12.382200
ltibia 14.821500
lfoot -5.246650 4.139830
ltoes -2.607270
71
root 9.191400 16.415600 -26.648701 5.088980 -10.130800 0.888286
lowerback -2.538320 -0.127766 -1.161790
upperback -0.950710 -0.133137 1.291870
thorax 0.455763 -0.061386 1.977275
lowerneck -11.329350 -1.983125 -5.900000
upperneck 9.209950 -2.298670 6.462350
head 5.105300 -0.733070 2.957135
rclavicle 0.000000 0.000000
rhumerus -21.415199 6.354850 -44.968750
rradius 19.351351
rwrist -10.231100
rhand -15.266200 -11.728350
rfingers 3.562510
rthumb -1.915795 -26.701000
lclavicle 0.000000 0.000000
lhumerus -17.313101 -4.614095 44.275452
lradius 10.997100
lwrist -1.093030
lhand -0.297812 -8.809650
lfingers 3.562510
lthumb 12.509850 5.381100
rfemur -5.709650 -0.612625 8.571000
rtibia 31.400249
rfoot -1.338605 -5.422950
rtoes -4.833845
lfemur -11.263300 2.819200 -12.364050
ltibia 14.670150
lfoot -5.422850 4.218640
ltoes -2.599190
72
root 9.201030 16.424000 -26.545000 5.214920 -9.949840 1.147620
lowerback -2.580425 -0.183016 -1.343045
upperback -1.002855 -0.197291 1.306485
thorax 0.432000 -0.091742 2.091590
lowerneck -11.220300 -1.979640 -5.904450
upperneck 9.193900 -2.296730 6.436850
head 5.078600 -0.738825 2.946990
rclavicle -0.000000 -0.000000
rhumerus -21.546400 6.415300 -44.908852
rradius 19.476801
rwrist -10.353550
rhand -15.195600 -11.521250
rfingers 3.562510
rthumb -1.847595 -26.495100
lclavicle -0.000000 -0.000000
lhumerus -17.065201 -4.672795 44.226200
lradius 11.242950
lwrist -1.078820
lhand -0.225914 -8.629000
lfingers 3.562510
lthumb 12.578750 5.552100
rfemur -6.407050 -0.531395 8.590300
rtibia 31.656349
rfoot -2.111855 -5.360000
rtoes -5.191500
lfemur -11.080400 2.762190 -12.558550
ltibia 14.525650
lfoot -5.537600 4.218310
ltoes -2.457355
73
root 9.209920 16.424700 -26.448700 5.326930 -9.585450 1.406350
lowerback -2.601780 -0.255106 -1.490675
upperback -1.042320 -0.285405 1.290800
thorax 0.412371 -0.134356 2.153885
lowerneck -11.166250 -1.945270 -5.761700
upperneck 9.219200 -2.265185 6.272850
head 5.064750 -0.734055 2.866025
rclavicle -0.000000 0.000000
rhumerus -21.655500 6.416100 -44.875549
rradius 19.663050
rwrist -10.488000
rhand -15.166500 -11.283200
rfingers 3.562510
rthumb -1.819520 -26.257500
lclavicle -0.000000 0.000000
lhumerus -16.738649 -4.955725 44.200550
lradius 11.410250
lwrist -0.908630
lhand -0.259585 -8.542450
lfingers 3.562510
lthumb 12.546500 5.643150
rfemur -7.113700 -0.553885 8.634550
rtibia 31.828051
rfoot -2.646290 -5.406850
rtoes -5.749650
lfemur -10.893050 2.665095 -12.747850
ltibia 14.351500
lfoot -5.628350 4.181270
ltoes -2.396925
74
root 9.227340 16.430000 -26.332899 5.100230 -9.410190 1.564650
lowerback -2.531715 -0.275429 -1.554240
upperback -1.007750 -0.311121 1.303685
thorax 0.412082 -0.147534 2.202120
lowerneck -10.983100 -1.930625 -5.696100
upperneck 9.089200 -2.241085 6.133300
head 4.976145 -0.739380 2.800045
rclavicle 0.000000 0.000000
rhumerus -21.677349 6.461250 -44.781750
rradius 19.733450
rwrist -10.613350
rhand -15.135450 -11.252300
rfingers 3.562510
rthumb -1.789515 -26.227150
lclavicle 0.000000 0.000000
lhumerus -16.353251 -5.103850 44.173248
lradius 11.478100
lwrist -0.887840
lhand -0.321184 -8.620500
lfingers 3.562510
lthumb 12.487500 5.573350
rfemur -7.563400 -0.542130 8.655700
rtibia 31.927401
rfoot -3.460220 -5.394950
rtoes -5.441850
lfemur -10.451500 2.507705 -12.870100
ltibia 14.164550
lfoot -5.863250 4.278270
ltoes -2.057325
75
root 9.244010 16.436300 -26.215500 4.888100 -9.380000 1.718490
lowerback -2.456220 -0.295333 -1.638315
upperback -0.995860 -0.335707 1.324420
thorax 0.385646 -0.159140 2.270490
lowerneck -10.946900 -1.880935 -5.577500
upperneck 9.161800 -2.183205 5.976100
head 4.979955 -0.722805 2.732330
rclavicle -0.000000 0.000000
rhumerus -21.750500 6.609900 -44.727051
rradius 19.801550
rwrist -10.712250
rhand -14.958850 -11.503500
rfingers 3.562510
rthumb -1.619005 -26.481100
lclavicle -0.000000 0.000000
lhumerus -15.994200 -5.022800 44.051350
lradius 11.531250
lwrist -1.091720
lhand -0.218830 -8.782900
lfingers 3.562510
lthumb 12.585550 5.397250
rfemur -8.019250 -0.439020 8.672700
rtibia 32.018600
rfoot -4.381625 -5.449550
rtoes -5.012350
lfemur -10.034050 2.348600 -12.986050
ltibia 14.022600
lfoot -6.333300 4.432800
ltoes -0.867930
76
root 9.253820 16.436199 -26.104099 4.809110 -9.299940 1.633040
lowerback -2.464510 -0.312699 -1.581205
upperback -0.966760 -0.361452 1.329090
thorax 0.422418 -0.173533 2.241210
lowerneck -11.149200 -1.952770 -5.930750
upperneck 9.448300 -2.246910 6.299650
head 5.145350 -0.735975 2.916910
rclavicle 0.000000 0.000000
rhumerus -21.793350 6.654950 -44.727798
rradius 19.874800
rwrist -10.788050
rhand -14.873900 -11.476200
rfingers 3.562510
rthumb -1.536950 -26.454950
lclavicle 0.000000 0.000000
lhumerus -15.633800 -5.172950 43.923401
lradius 11.694500
lwrist -1.016520
lhand 0.302601 -8.813250
lfingers 3.562510
lthumb 13.084950 5.294850
rfemur -8.534600 -0.264921 8.868850
rtibia 32.050301
rfoot -5.252600 -5.693750
rtoes -5.354600
lfemur -9.692650 2.218470 -12.949150
ltibia 13.895700
lfoot -6.962700 4.496850
ltoes 1.112575
77
root 9.263090 16.421200 -25.993700 4.684410 -9.144440 1.710920
lowerback -2.503525 -0.318407 -1.588835
upperback -0.896860 -0.367471 1.291605
thorax 0.516500 -0.179790 2.205575
lowerneck -11.169700 -1.984580 -5.818750
upperneck 9.497500 -2.300685 6.173450
head 5.167950 -0.766200 2.843435
rclavicle 0.000000 -0.000000
rhumerus -21.760099 6.578450 -44.697899
rradius 19.923550
rwrist -10.779500
rhand -14.998900 -11.645250
rfingers 3.562510
rthumb -1.657685 -26.622200
lclavicle 0.000000 -0.000000
lhumerus -15.232850 -5.374150 43.795200
lradius 11.939850
lwrist -0.866315
lhand 0.936860 -8.764800
lfingers 3.562510
lthumb 13.691900 5.250400
rfemur -9.047300 -0.146020 8.963900
rtibia 32.033501
rfoot -5.937650 -5.874600
rtoes -6.106950
lfemur -9.375700 2.084840 -13.006000
ltibia 13.824200
lfoot -7.332400 4.483055
ltoes 2.141755
